<svg width="201" height="120" viewBox="0 0 201 120" fill="none" xmlns="http://www.w3.org/2000/svg">
<path d="M46.7 28L8 72L46.7 72V75L4 75V72L42.7 28L4 28L4 25L46.7 25V28ZM91.3836 75H87.9836L71.9836 47.4L59.6836 62.1V75H56.6836L56.6836 -5.96046e-06H59.6836L59.6836 57.4L86.8836 25H90.7836L73.9836 44.9L91.3836 75ZM142.669 25H145.669L145.669 75H142.669L142.669 63.3C140.869 67.2 138.235 70.35 134.769 72.75C131.302 75.1167 127.135 76.3 122.269 76.3C118.635 76.3 115.235 75.6167 112.069 74.25C108.902 72.8833 106.102 71 103.669 68.6C101.269 66.1667 99.3854 63.3667 98.0188 60.2C96.6521 57.0333 95.9688 53.6333 95.9688 50C95.9688 46.3333 96.6521 42.9167 98.0188 39.75C99.3854 36.55 101.269 33.75 103.669 31.35C106.102 28.9167 108.902 27.0167 112.069 25.65C115.235 24.2833 118.635 23.6 122.269 23.6C127.135 23.6 131.302 24.8 134.769 27.2C138.235 29.5667 140.869 32.7 142.669 36.6V25ZM122.269 73.3C126.569 73.3 130.219 72.25 133.219 70.15C136.252 68.05 138.552 65.2333 140.119 61.7C141.685 58.1667 142.469 54.2667 142.469 50C142.469 45.6333 141.669 41.6833 140.069 38.15C138.469 34.6167 136.152 31.8167 133.119 29.75C130.119 27.65 126.502 26.6 122.269 26.6C117.969 26.6 114.052 27.65 110.519 29.75C106.985 31.85 104.169 34.6833 102.069 38.25C100.002 41.7833 98.9688 45.7 98.9688 50C98.9688 54.3667 100.035 58.3167 102.169 61.85C104.335 65.35 107.185 68.1333 110.719 70.2C114.252 72.2667 118.102 73.3 122.269 73.3Z" fill="white"/>
<path d="M9.34 109.6L1.6 118.4H9.34V119H0.8L0.8 118.4L8.54 109.6H0.8L0.8 109H9.34V109.6ZM15.7367 119.26C14.8167 119.26 13.9767 119.023 13.2167 118.55C12.4634 118.077 11.8601 117.443 11.4067 116.65C10.9601 115.85 10.7367 114.967 10.7367 114C10.7367 113.267 10.8667 112.583 11.1267 111.95C11.3867 111.31 11.7434 110.75 12.1967 110.27C12.6567 109.783 13.1901 109.403 13.7967 109.13C14.4034 108.857 15.0501 108.72 15.7367 108.72C16.4501 108.72 17.1067 108.853 17.7067 109.12C18.3067 109.387 18.8301 109.767 19.2767 110.26C19.7234 110.753 20.0701 111.343 20.3167 112.03C20.5701 112.71 20.7034 113.467 20.7167 114.3H11.3367C11.4034 115.133 11.6401 115.88 12.0467 116.54C12.4601 117.193 12.9867 117.71 13.6267 118.09C14.2667 118.47 14.9701 118.66 15.7367 118.66C16.5901 118.66 17.3567 118.433 18.0367 117.98C18.7167 117.527 19.2567 116.9 19.6567 116.1L20.2567 116.24C19.8567 117.127 19.2534 117.853 18.4467 118.42C17.6401 118.98 16.7367 119.26 15.7367 119.26ZM11.3367 113.7H20.1167C20.0901 112.92 19.8767 112.197 19.4767 111.53C19.0767 110.863 18.5501 110.33 17.8967 109.93C17.2434 109.523 16.5234 109.32 15.7367 109.32C14.9434 109.32 14.2234 109.517 13.5767 109.91C12.9367 110.303 12.4167 110.833 12.0167 111.5C11.6167 112.16 11.3901 112.893 11.3367 113.7ZM27.1161 109.6H24.3761L24.3561 119H23.7561L23.7761 109.6H21.7161V109H23.7761L23.7561 105.86H24.3561L24.3761 109H27.1161V109.6ZM37.3228 109H37.9228V119H37.3228V116.66C36.9628 117.44 36.4361 118.07 35.7428 118.55C35.0495 119.023 34.2161 119.26 33.2428 119.26C32.5161 119.26 31.8361 119.123 31.2028 118.85C30.5695 118.577 30.0095 118.2 29.5228 117.72C29.0428 117.233 28.6661 116.673 28.3928 116.04C28.1195 115.407 27.9828 114.727 27.9828 114C27.9828 113.267 28.1195 112.583 28.3928 111.95C28.6661 111.31 29.0428 110.75 29.5228 110.27C30.0095 109.783 30.5695 109.403 31.2028 109.13C31.8361 108.857 32.5161 108.72 33.2428 108.72C34.2161 108.72 35.0495 108.96 35.7428 109.44C36.4361 109.913 36.9628 110.54 37.3228 111.32V109ZM33.2428 118.66C34.1028 118.66 34.8328 118.45 35.4328 118.03C36.0395 117.61 36.4995 117.047 36.8128 116.34C37.1261 115.633 37.2828 114.853 37.2828 114C37.2828 113.127 37.1228 112.337 36.8028 111.63C36.4828 110.923 36.0195 110.363 35.4128 109.95C34.8128 109.53 34.0895 109.32 33.2428 109.32C32.3828 109.32 31.5995 109.53 30.8928 109.95C30.1861 110.37 29.6228 110.937 29.2028 111.65C28.7895 112.357 28.5828 113.14 28.5828 114C28.5828 114.873 28.7961 115.663 29.2228 116.37C29.6561 117.07 30.2261 117.627 30.9328 118.04C31.6395 118.453 32.4095 118.66 33.2428 118.66ZM51.6752 119H50.9952L47.7952 113.48L45.3352 116.42V119H44.7352V104H45.3352V115.48L50.7752 109H51.5552L48.1952 112.98L51.6752 119ZM57.5922 119.26C56.6722 119.26 55.8322 119.023 55.0722 118.55C54.3189 118.077 53.7155 117.443 53.2622 116.65C52.8155 115.85 52.5922 114.967 52.5922 114C52.5922 113.267 52.7222 112.583 52.9822 111.95C53.2422 111.31 53.5989 110.75 54.0522 110.27C54.5122 109.783 55.0455 109.403 55.6522 109.13C56.2589 108.857 56.9055 108.72 57.5922 108.72C58.3055 108.72 58.9622 108.853 59.5622 109.12C60.1622 109.387 60.6855 109.767 61.1322 110.26C61.5789 110.753 61.9255 111.343 62.1722 112.03C62.4255 112.71 62.5589 113.467 62.5722 114.3H53.1922C53.2589 115.133 53.4955 115.88 53.9022 116.54C54.3155 117.193 54.8422 117.71 55.4822 118.09C56.1222 118.47 56.8255 118.66 57.5922 118.66C58.4455 118.66 59.2122 118.433 59.8922 117.98C60.5722 117.527 61.1122 116.9 61.5122 116.1L62.1122 116.24C61.7122 117.127 61.1089 117.853 60.3022 118.42C59.4955 118.98 58.5922 119.26 57.5922 119.26ZM53.1922 113.7H61.9722C61.9455 112.92 61.7322 112.197 61.3322 111.53C60.9322 110.863 60.4055 110.33 59.7522 109.93C59.0989 109.523 58.3789 109.32 57.5922 109.32C56.7989 109.32 56.0789 109.517 55.4322 109.91C54.7922 110.303 54.2722 110.833 53.8722 111.5C53.4722 112.16 53.2455 112.893 53.1922 113.7ZM64.3641 119V109H64.9641V110.75C65.3307 110.137 65.8307 109.647 66.4641 109.28C67.0974 108.907 67.7941 108.72 68.5541 108.72C68.9474 108.72 69.3241 108.77 69.6841 108.87L69.4241 109.43C69.1307 109.357 68.8407 109.32 68.5541 109.32C67.8941 109.32 67.2907 109.483 66.7441 109.81C66.2041 110.13 65.7707 110.56 65.4441 111.1C65.1241 111.64 64.9641 112.243 64.9641 112.91V119H64.3641ZM79.4628 112.91V119H78.8628V112.91C78.8628 112.243 78.6995 111.64 78.3728 111.1C78.0528 110.56 77.6195 110.13 77.0728 109.81C76.5328 109.483 75.9328 109.32 75.2728 109.32C74.6128 109.32 74.0095 109.483 73.4628 109.81C72.9228 110.13 72.4895 110.56 72.1628 111.1C71.8428 111.64 71.6828 112.243 71.6828 112.91V119H71.0828V109H71.6828V110.75C72.0495 110.137 72.5495 109.647 73.1828 109.28C73.8161 108.907 74.5128 108.72 75.2728 108.72C76.0461 108.72 76.7495 108.91 77.3828 109.29C78.0161 109.663 78.5195 110.167 78.8928 110.8C79.2728 111.433 79.4628 112.137 79.4628 112.91ZM85.6586 119.26C84.7386 119.26 83.8986 119.023 83.1386 118.55C82.3853 118.077 81.7819 117.443 81.3286 116.65C80.8819 115.85 80.6586 114.967 80.6586 114C80.6586 113.267 80.7886 112.583 81.0486 111.95C81.3086 111.31 81.6653 110.75 82.1186 110.27C82.5786 109.783 83.1119 109.403 83.7186 109.13C84.3253 108.857 84.9719 108.72 85.6586 108.72C86.3719 108.72 87.0286 108.853 87.6286 109.12C88.2286 109.387 88.7519 109.767 89.1986 110.26C89.6453 110.753 89.9919 111.343 90.2386 112.03C90.4919 112.71 90.6253 113.467 90.6386 114.3H81.2586C81.3253 115.133 81.5619 115.88 81.9686 116.54C82.3819 117.193 82.9086 117.71 83.5486 118.09C84.1886 118.47 84.8919 118.66 85.6586 118.66C86.5119 118.66 87.2786 118.433 87.9586 117.98C88.6386 117.527 89.1786 116.9 89.5786 116.1L90.1786 116.24C89.7786 117.127 89.1753 117.853 88.3686 118.42C87.5619 118.98 86.6586 119.26 85.6586 119.26ZM81.2586 113.7H90.0386C90.0119 112.92 89.7986 112.197 89.3986 111.53C88.9986 110.863 88.4719 110.33 87.8186 109.93C87.1653 109.523 86.4453 109.32 85.6586 109.32C84.8653 109.32 84.1453 109.517 83.4986 109.91C82.8586 110.303 82.3386 110.833 81.9386 111.5C81.5386 112.16 81.3119 112.893 81.2586 113.7ZM92.4305 119V104H93.0305V119H92.4305ZM108.983 109H109.583V119H108.983V116.66C108.623 117.44 108.096 118.07 107.403 118.55C106.71 119.023 105.876 119.26 104.903 119.26C104.176 119.26 103.496 119.123 102.863 118.85C102.23 118.577 101.67 118.2 101.183 117.72C100.703 117.233 100.326 116.673 100.053 116.04C99.7796 115.407 99.643 114.727 99.643 114C99.643 113.267 99.7796 112.583 100.053 111.95C100.326 111.31 100.703 110.75 101.183 110.27C101.67 109.783 102.23 109.403 102.863 109.13C103.496 108.857 104.176 108.72 104.903 108.72C105.876 108.72 106.71 108.96 107.403 109.44C108.096 109.913 108.623 110.54 108.983 111.32V109ZM104.903 118.66C105.763 118.66 106.493 118.45 107.093 118.03C107.7 117.61 108.16 117.047 108.473 116.34C108.786 115.633 108.943 114.853 108.943 114C108.943 113.127 108.783 112.337 108.463 111.63C108.143 110.923 107.68 110.363 107.073 109.95C106.473 109.53 105.75 109.32 104.903 109.32C104.043 109.32 103.26 109.53 102.553 109.95C101.846 110.37 101.283 110.937 100.863 111.65C100.45 112.357 100.243 113.14 100.243 114C100.243 114.873 100.456 115.663 100.883 116.37C101.316 117.07 101.886 117.627 102.593 118.04C103.3 118.453 104.07 118.66 104.903 118.66ZM111.591 119V109H112.191V110.75C112.557 110.137 113.057 109.647 113.691 109.28C114.324 108.907 115.021 108.72 115.781 108.72C116.174 108.72 116.551 108.77 116.911 108.87L116.651 109.43C116.357 109.357 116.067 109.32 115.781 109.32C115.121 109.32 114.517 109.483 113.971 109.81C113.431 110.13 112.997 110.56 112.671 111.1C112.351 111.64 112.191 112.243 112.191 112.91V119H111.591ZM125.583 116.88L126.103 117.16C125.657 117.8 125.083 118.31 124.383 118.69C123.69 119.07 122.937 119.26 122.123 119.26C121.203 119.26 120.363 119.023 119.603 118.55C118.85 118.077 118.247 117.443 117.793 116.65C117.347 115.85 117.123 114.967 117.123 114C117.123 113.267 117.253 112.583 117.513 111.95C117.773 111.31 118.13 110.75 118.583 110.27C119.043 109.783 119.577 109.403 120.183 109.13C120.79 108.857 121.437 108.72 122.123 108.72C122.937 108.72 123.69 108.91 124.383 109.29C125.083 109.67 125.657 110.18 126.103 110.82L125.583 111.1C125.157 110.527 124.633 110.087 124.013 109.78C123.393 109.473 122.763 109.32 122.123 109.32C121.297 109.32 120.55 109.533 119.883 109.96C119.223 110.387 118.697 110.957 118.303 111.67C117.917 112.377 117.723 113.153 117.723 114C117.723 114.86 117.92 115.643 118.313 116.35C118.713 117.05 119.247 117.61 119.913 118.03C120.58 118.45 121.317 118.66 122.123 118.66C122.823 118.66 123.477 118.493 124.083 118.16C124.697 117.827 125.197 117.4 125.583 116.88ZM136.279 112.91V119H135.679V112.91C135.679 112.243 135.516 111.64 135.189 111.1C134.869 110.56 134.436 110.13 133.889 109.81C133.349 109.483 132.749 109.32 132.089 109.32C131.429 109.32 130.826 109.483 130.279 109.81C129.739 110.13 129.306 110.56 128.979 111.1C128.659 111.64 128.499 112.243 128.499 112.91V119H127.899V104H128.499V110.75C128.866 110.137 129.366 109.647 129.999 109.28C130.633 108.907 131.329 108.72 132.089 108.72C132.863 108.72 133.566 108.91 134.199 109.29C134.833 109.663 135.336 110.167 135.709 110.8C136.089 111.433 136.279 112.137 136.279 112.91ZM138.27 109H138.87V119H138.27V109ZM138.58 106.9C138.454 106.9 138.344 106.86 138.25 106.78C138.164 106.693 138.12 106.587 138.12 106.46C138.12 106.327 138.164 106.22 138.25 106.14C138.344 106.06 138.454 106.02 138.58 106.02C138.7 106.02 138.804 106.06 138.89 106.14C138.977 106.22 139.02 106.323 139.02 106.45C139.02 106.583 138.977 106.693 138.89 106.78C138.804 106.86 138.7 106.9 138.58 106.9ZM146.198 109.6H143.458L143.438 119H142.838L142.858 109.6H140.798V109H142.858L142.838 105.86H143.438L143.458 109H146.198V109.6ZM152.065 119.26C151.145 119.26 150.305 119.023 149.545 118.55C148.792 118.077 148.188 117.443 147.735 116.65C147.288 115.85 147.065 114.967 147.065 114C147.065 113.267 147.195 112.583 147.455 111.95C147.715 111.31 148.072 110.75 148.525 110.27C148.985 109.783 149.518 109.403 150.125 109.13C150.732 108.857 151.378 108.72 152.065 108.72C152.778 108.72 153.435 108.853 154.035 109.12C154.635 109.387 155.158 109.767 155.605 110.26C156.052 110.753 156.398 111.343 156.645 112.03C156.898 112.71 157.032 113.467 157.045 114.3H147.665C147.732 115.133 147.968 115.88 148.375 116.54C148.788 117.193 149.315 117.71 149.955 118.09C150.595 118.47 151.298 118.66 152.065 118.66C152.918 118.66 153.685 118.433 154.365 117.98C155.045 117.527 155.585 116.9 155.985 116.1L156.585 116.24C156.185 117.127 155.582 117.853 154.775 118.42C153.968 118.98 153.065 119.26 152.065 119.26ZM147.665 113.7H156.445C156.418 112.92 156.205 112.197 155.805 111.53C155.405 110.863 154.878 110.33 154.225 109.93C153.572 109.523 152.852 109.32 152.065 109.32C151.272 109.32 150.552 109.517 149.905 109.91C149.265 110.303 148.745 110.833 148.345 111.5C147.945 112.16 147.718 112.893 147.665 113.7ZM166.501 116.88L167.021 117.16C166.575 117.8 166.001 118.31 165.301 118.69C164.608 119.07 163.855 119.26 163.041 119.26C162.121 119.26 161.281 119.023 160.521 118.55C159.768 118.077 159.165 117.443 158.711 116.65C158.265 115.85 158.041 114.967 158.041 114C158.041 113.267 158.171 112.583 158.431 111.95C158.691 111.31 159.048 110.75 159.501 110.27C159.961 109.783 160.495 109.403 161.101 109.13C161.708 108.857 162.355 108.72 163.041 108.72C163.855 108.72 164.608 108.91 165.301 109.29C166.001 109.67 166.575 110.18 167.021 110.82L166.501 111.1C166.075 110.527 165.551 110.087 164.931 109.78C164.311 109.473 163.681 109.32 163.041 109.32C162.215 109.32 161.468 109.533 160.801 109.96C160.141 110.387 159.615 110.957 159.221 111.67C158.835 112.377 158.641 113.153 158.641 114C158.641 114.86 158.838 115.643 159.231 116.35C159.631 117.05 160.165 117.61 160.831 118.03C161.498 118.45 162.235 118.66 163.041 118.66C163.741 118.66 164.395 118.493 165.001 118.16C165.615 117.827 166.115 117.4 166.501 116.88ZM173.737 109.6H170.997L170.977 119H170.377L170.397 109.6H168.337V109H170.397L170.377 105.86H170.977L170.997 109H173.737V109.6ZM175.116 115.07V109H175.716V115.07C175.716 115.73 175.876 116.333 176.196 116.88C176.523 117.42 176.956 117.853 177.496 118.18C178.043 118.5 178.646 118.66 179.306 118.66C179.966 118.66 180.566 118.5 181.106 118.18C181.653 117.853 182.086 117.42 182.406 116.88C182.733 116.333 182.896 115.73 182.896 115.07V109H183.496V119H182.896V117.23C182.53 117.837 182.03 118.327 181.396 118.7C180.763 119.073 180.066 119.26 179.306 119.26C178.533 119.26 177.83 119.073 177.196 118.7C176.563 118.32 176.056 117.813 175.676 117.18C175.303 116.547 175.116 115.843 175.116 115.07ZM185.497 119V109H186.097V110.75C186.464 110.137 186.964 109.647 187.597 109.28C188.23 108.907 188.927 108.72 189.687 108.72C190.08 108.72 190.457 108.77 190.817 108.87L190.557 109.43C190.264 109.357 189.974 109.32 189.687 109.32C189.027 109.32 188.424 109.483 187.877 109.81C187.337 110.13 186.904 110.56 186.577 111.1C186.257 111.64 186.097 112.243 186.097 112.91V119H185.497ZM196.03 119.26C195.11 119.26 194.27 119.023 193.51 118.55C192.756 118.077 192.153 117.443 191.7 116.65C191.253 115.85 191.03 114.967 191.03 114C191.03 113.267 191.16 112.583 191.42 111.95C191.68 111.31 192.036 110.75 192.49 110.27C192.95 109.783 193.483 109.403 194.09 109.13C194.696 108.857 195.343 108.72 196.03 108.72C196.743 108.72 197.4 108.853 198 109.12C198.6 109.387 199.123 109.767 199.57 110.26C200.016 110.753 200.363 111.343 200.61 112.03C200.863 112.71 200.996 113.467 201.01 114.3H191.63C191.696 115.133 191.933 115.88 192.34 116.54C192.753 117.193 193.28 117.71 193.92 118.09C194.56 118.47 195.263 118.66 196.03 118.66C196.883 118.66 197.65 118.433 198.33 117.98C199.01 117.527 199.55 116.9 199.95 116.1L200.55 116.24C200.15 117.127 199.546 117.853 198.74 118.42C197.933 118.98 197.03 119.26 196.03 119.26ZM191.63 113.7H200.41C200.383 112.92 200.17 112.197 199.77 111.53C199.37 110.863 198.843 110.33 198.19 109.93C197.536 109.523 196.816 109.32 196.03 109.32C195.236 109.32 194.516 109.517 193.87 109.91C193.23 110.303 192.71 110.833 192.31 111.5C191.91 112.16 191.683 112.893 191.63 113.7Z" fill="white"/>
</svg>
