<svg width="125" height="49" viewBox="0 0 125 49" fill="none" xmlns="http://www.w3.org/2000/svg">
<rect width="125" height="49" rx="24.5" fill="url(#paint0_linear_0_1)"/>
<rect x="5" y="4" width="42" height="41" rx="20.5" fill="url(#paint1_linear_0_1)"/>
<path d="M54.125 33V15.5455H58.8636V22.3636H65.1364V15.5455H69.875V33H65.1364V26.1818H58.8636V33H54.125ZM88.4205 22.0909H83.6136C83.5795 21.6932 83.4886 21.3324 83.3409 21.0085C83.1989 20.6847 83 20.4062 82.7443 20.1733C82.4943 19.9347 82.1903 19.7528 81.8324 19.6278C81.4744 19.4972 81.0682 19.4318 80.6136 19.4318C79.8182 19.4318 79.1449 19.625 78.5938 20.0114C78.0483 20.3977 77.6335 20.9517 77.3494 21.6733C77.071 22.3949 76.9318 23.2614 76.9318 24.2727C76.9318 25.3409 77.0739 26.2358 77.358 26.9574C77.6477 27.6733 78.0653 28.2131 78.6108 28.5767C79.1563 28.9347 79.8125 29.1136 80.5795 29.1136C81.017 29.1136 81.4091 29.0597 81.7557 28.9517C82.1023 28.8381 82.4034 28.6761 82.6591 28.4659C82.9148 28.2557 83.1222 28.0028 83.2812 27.7074C83.446 27.4062 83.5568 27.0682 83.6136 26.6932L88.4205 26.7273C88.3636 27.4659 88.1563 28.2187 87.7983 28.9858C87.4403 29.7472 86.9318 30.4517 86.2727 31.0994C85.6193 31.7415 84.8097 32.2585 83.8438 32.6506C82.8778 33.0426 81.7557 33.2386 80.4773 33.2386C78.875 33.2386 77.4375 32.8949 76.1648 32.2074C74.8977 31.5199 73.8949 30.5085 73.1562 29.1733C72.4233 27.8381 72.0568 26.2045 72.0568 24.2727C72.0568 22.3295 72.4318 20.6932 73.1818 19.3636C73.9318 18.0284 74.9432 17.0199 76.2159 16.3381C77.4886 15.6506 78.9091 15.3068 80.4773 15.3068C81.5795 15.3068 82.5938 15.4574 83.5199 15.7585C84.446 16.0597 85.2585 16.5 85.9574 17.0795C86.6563 17.6534 87.2188 18.3608 87.6449 19.2017C88.071 20.0426 88.3295 21.0057 88.4205 22.0909ZM90.5703 33V15.5455H98.1044C99.3999 15.5455 100.533 15.7812 101.505 16.2528C102.477 16.7244 103.232 17.4034 103.772 18.2898C104.312 19.1761 104.582 20.2386 104.582 21.4773C104.582 22.7273 104.303 23.7812 103.746 24.6392C103.195 25.4972 102.42 26.1449 101.42 26.5824C100.425 27.0199 99.2635 27.2386 97.9339 27.2386H93.4339V23.5568H96.9794C97.5362 23.5568 98.0107 23.4886 98.4027 23.3523C98.8004 23.2102 99.1044 22.9858 99.3146 22.679C99.5305 22.3722 99.6385 21.9716 99.6385 21.4773C99.6385 20.9773 99.5305 20.571 99.3146 20.2585C99.1044 19.9403 98.8004 19.7074 98.4027 19.5597C98.0107 19.4062 97.5362 19.3295 96.9794 19.3295H95.3089V33H90.5703ZM100.798 24.9886L105.161 33H100.013L95.7521 24.9886H100.798Z" fill="#26B345"/>
<defs>
<linearGradient id="paint0_linear_0_1" x1="62.5" y1="0" x2="62.5" y2="49" gradientUnits="userSpaceOnUse">
<stop stop-color="white"/>
<stop offset="1" stop-color="#999999"/>
</linearGradient>
<linearGradient id="paint1_linear_0_1" x1="47" y1="24.5" x2="5" y2="24.5" gradientUnits="userSpaceOnUse">
<stop stop-color="#0F8228"/>
<stop offset="1" stop-color="#1DDF48"/>
</linearGradient>
</defs>
</svg>
