<svg width="520" height="122" viewBox="0 0 520 122" fill="none" xmlns="http://www.w3.org/2000/svg">
<g filter="url(#filter0_di_0_1)">
<rect x="4" width="305" height="114" fill="url(#paint0_linear_0_1)" shape-rendering="crispEdges"/>
<rect x="4" width="305" height="114" fill="url(#paint1_linear_0_1)" fill-opacity="0.59" shape-rendering="crispEdges"/>
<rect x="4.5" y="0.5" width="304" height="113" stroke="white" shape-rendering="crispEdges"/>
</g>
<path d="M41.1641 93C41.1641 90.4667 41.1641 87.9 41.1641 85.3C41.1641 82.7 41.1641 80.1333 41.1641 77.6C45.7641 71.4667 50.4307 65.2667 55.1641 59C59.8974 52.7333 64.5641 46.5333 69.1641 40.4C64.5641 40.4 59.8974 40.4 55.1641 40.4C50.4307 40.4 45.7641 40.4 41.1641 40.4C41.1641 37.8667 41.1641 35.3 41.1641 32.7C41.1641 30.1 41.1641 27.5333 41.1641 25C49.1641 25 57.2307 25 65.3641 25C73.5641 25 81.6641 25 89.6641 25C89.6641 27.5333 89.6641 30.1 89.6641 32.7C89.6641 35.3 89.6641 37.8667 89.6641 40.4C85.0641 46.5333 80.3974 52.7333 75.6641 59C70.9307 65.2667 66.2641 71.4667 61.6641 77.6C66.2641 77.6 70.9307 77.6 75.6641 77.6C80.3974 77.6 85.0641 77.6 89.6641 77.6C89.6641 80.1333 89.6641 82.7 89.6641 85.3C89.6641 87.9 89.6641 90.4667 89.6641 93C81.6641 93 73.5641 93 65.3641 93C57.2307 93 49.1641 93 41.1641 93ZM127.16 93C127.16 81.8 127.16 70.4667 127.16 59C127.16 47.5333 127.16 36.2 127.16 25C130.093 25 133.027 25 135.96 25C138.893 25 141.793 25 144.66 25C144.66 29.3333 144.66 33.7333 144.66 38.2C144.66 42.6 144.66 46.9667 144.66 51.3C148.06 46.9667 151.46 42.6 154.86 38.2C158.327 33.7333 161.76 29.3333 165.16 25C168.427 25 171.727 25 175.06 25C178.393 25 181.693 25 184.96 25C180.76 30.3333 176.493 35.7333 172.16 41.2C167.893 46.6 163.66 51.9667 159.46 57.3C163.86 63.1667 168.293 69.1 172.76 75.1C177.293 81.1 181.76 87.0667 186.16 93C182.693 93 179.193 93 175.66 93C172.193 93 168.727 93 165.26 93C161.86 88.2667 158.427 83.5333 154.96 78.8C151.493 74 148.06 69.2667 144.66 64.6C144.66 69.2667 144.66 74 144.66 78.8C144.66 83.5333 144.66 88.2667 144.66 93C141.793 93 138.893 93 135.96 93C133.027 93 130.093 93 127.16 93ZM211.113 93C214.58 81.8 218.047 70.4667 221.513 59C225.047 47.5333 228.547 36.2 232.013 25C235.947 25 239.913 25 243.913 25C247.98 25 251.98 25 255.913 25C259.38 36.2 262.847 47.5333 266.313 59C269.847 70.4667 273.347 81.8 276.813 93C273.947 93 271.013 93 268.013 93C265.08 93 262.147 93 259.213 93C258.547 90.8667 257.913 88.7333 257.313 86.6C256.713 84.4 256.08 82.2333 255.413 80.1C251.613 80.1 247.78 80.1 243.913 80.1C240.113 80.1 236.313 80.1 232.513 80.1C231.847 82.2333 231.213 84.4 230.613 86.6C230.013 88.7333 229.38 90.8667 228.713 93C225.847 93 222.913 93 219.913 93C216.98 93 214.047 93 211.113 93ZM236.913 65.2C239.247 65.2 241.58 65.2 243.913 65.2C246.313 65.2 248.68 65.2 251.013 65.2C249.88 61.2667 248.713 57.3 247.513 53.3C246.313 49.3 245.147 45.3333 244.013 41.4C242.88 45.3333 241.68 49.3 240.413 53.3C239.213 57.3 238.047 61.2667 236.913 65.2Z" fill="white"/>
<path d="M325.2 50V47.9L339.375 31.1H325.2V29H342.18V31.1L328.005 47.9H342.18V50H325.2ZM343.965 50V29H356.745V31.1H346.065V37.7H354.9V39.8H346.065V47.9H356.745V50H343.965ZM374.734 29V31.1H367.534V50H365.434V31.1H358.249V29H374.734ZM380.973 29H383.583L391.233 50H388.998L387.363 45.5H377.208L375.573 50H373.338L380.973 29ZM377.973 43.4H386.583L382.278 31.58L377.973 43.4ZM412.533 50H409.818L402.933 40.565L401.148 42.71V50H399.048V29H401.148V39.44L409.893 29H412.638L404.313 38.915L412.533 50ZM414.049 50V29H426.829V31.1H416.149V37.7H424.984V39.8H416.149V47.9H426.829V50H414.049ZM429.138 50V29H436.263C437.383 29 438.393 29.275 439.293 29.825C440.193 30.365 440.908 31.1 441.438 32.03C441.968 32.95 442.233 33.985 442.233 35.135C442.233 36.165 442.023 37.1 441.603 37.94C441.183 38.78 440.608 39.475 439.878 40.025C439.158 40.575 438.343 40.94 437.433 41.12L442.563 50H440.133L435.078 41.285H431.238V50H429.138ZM431.238 39.185H436.083C436.823 39.185 437.498 39.005 438.108 38.645C438.728 38.275 439.218 37.78 439.578 37.16C439.948 36.53 440.133 35.82 440.133 35.03C440.133 34.24 439.948 33.535 439.578 32.915C439.218 32.285 438.728 31.79 438.108 31.43C437.498 31.06 436.823 30.875 436.083 30.875H431.238V39.185ZM445.077 50V29H447.357L458.442 46.205V29H460.542V50H458.277L447.177 32.795V50H445.077ZM462.949 50V29H475.729V31.1H465.049V37.7H473.884V39.8H465.049V47.9H475.729V50H462.949ZM478.038 50V29H480.138V47.9H489.783V50H478.038ZM332.835 65H335.445L343.095 86H340.86L339.225 81.5H329.07L327.435 86H325.2L332.835 65ZM329.835 79.4H338.445L334.14 67.58L329.835 79.4ZM344.698 86V65H351.823C352.943 65 353.953 65.275 354.853 65.825C355.753 66.365 356.468 67.1 356.998 68.03C357.528 68.95 357.793 69.985 357.793 71.135C357.793 72.165 357.583 73.1 357.163 73.94C356.743 74.78 356.168 75.475 355.438 76.025C354.718 76.575 353.903 76.94 352.993 77.12L358.123 86H355.693L350.638 77.285H346.798V86H344.698ZM346.798 75.185H351.643C352.383 75.185 353.058 75.005 353.668 74.645C354.288 74.275 354.778 73.78 355.138 73.16C355.508 72.53 355.693 71.82 355.693 71.03C355.693 70.24 355.508 69.535 355.138 68.915C354.778 68.285 354.288 67.79 353.668 67.43C353.058 67.06 352.383 66.875 351.643 66.875H346.798V75.185ZM369.536 86.39C368.116 86.39 366.781 86.11 365.531 85.55C364.281 84.98 363.181 84.2 362.231 83.21C361.291 82.21 360.551 81.05 360.011 79.73C359.481 78.41 359.216 77 359.216 75.5C359.216 74 359.481 72.59 360.011 71.27C360.551 69.95 361.291 68.795 362.231 67.805C363.181 66.805 364.281 66.025 365.531 65.465C366.781 64.895 368.116 64.61 369.536 64.61C371.236 64.61 372.801 65.005 374.231 65.795C375.661 66.585 376.846 67.635 377.786 68.945L375.926 69.95C375.186 68.96 374.246 68.175 373.106 67.595C371.976 67.005 370.786 66.71 369.536 66.71C368.386 66.71 367.311 66.945 366.311 67.415C365.321 67.875 364.451 68.51 363.701 69.32C362.951 70.13 362.366 71.065 361.946 72.125C361.526 73.185 361.316 74.31 361.316 75.5C361.316 76.71 361.526 77.845 361.946 78.905C362.376 79.965 362.966 80.9 363.716 81.71C364.476 82.52 365.351 83.155 366.341 83.615C367.341 84.065 368.406 84.29 369.536 84.29C370.836 84.29 372.041 83.995 373.151 83.405C374.271 82.805 375.196 82.025 375.926 81.065L377.786 82.07C376.846 83.38 375.661 84.43 374.231 85.22C372.801 86 371.236 86.39 369.536 86.39ZM392.805 65H394.905V86H392.805V75.8H381.78V86H379.68V65H381.78V73.7H392.805V65ZM397.768 86V65H399.868V86H397.768ZM418.595 65V67.1H411.395V86H409.295V67.1H402.11V65H418.595ZM420.407 86V65H433.187V67.1H422.507V73.7H431.342V75.8H422.507V83.9H433.187V86H420.407ZM444.718 86.39C443.298 86.39 441.963 86.11 440.713 85.55C439.463 84.98 438.363 84.2 437.413 83.21C436.473 82.21 435.733 81.05 435.193 79.73C434.663 78.41 434.398 77 434.398 75.5C434.398 74 434.663 72.59 435.193 71.27C435.733 69.95 436.473 68.795 437.413 67.805C438.363 66.805 439.463 66.025 440.713 65.465C441.963 64.895 443.298 64.61 444.718 64.61C446.418 64.61 447.983 65.005 449.413 65.795C450.843 66.585 452.028 67.635 452.968 68.945L451.108 69.95C450.368 68.96 449.428 68.175 448.288 67.595C447.158 67.005 445.968 66.71 444.718 66.71C443.568 66.71 442.493 66.945 441.493 67.415C440.503 67.875 439.633 68.51 438.883 69.32C438.133 70.13 437.548 71.065 437.128 72.125C436.708 73.185 436.498 74.31 436.498 75.5C436.498 76.71 436.708 77.845 437.128 78.905C437.558 79.965 438.148 80.9 438.898 81.71C439.658 82.52 440.533 83.155 441.523 83.615C442.523 84.065 443.588 84.29 444.718 84.29C446.018 84.29 447.223 83.995 448.333 83.405C449.453 82.805 450.378 82.025 451.108 81.065L452.968 82.07C452.028 83.38 450.843 84.43 449.413 85.22C447.983 86 446.418 86.39 444.718 86.39ZM470.513 65V67.1H463.313V86H461.213V67.1H454.028V65H470.513ZM480.469 86.39C478.789 86.39 477.339 85.98 476.119 85.16C474.899 84.34 473.959 83.24 473.299 81.86C472.649 80.47 472.324 78.93 472.324 77.24V65H474.424V77.24C474.424 78.52 474.659 79.695 475.129 80.765C475.599 81.835 476.284 82.69 477.184 83.33C478.084 83.97 479.179 84.29 480.469 84.29C481.789 84.29 482.894 83.97 483.784 83.33C484.684 82.68 485.364 81.82 485.824 80.75C486.284 79.68 486.514 78.51 486.514 77.24V65H488.614V77.24C488.614 78.51 488.424 79.7 488.044 80.81C487.674 81.91 487.134 82.88 486.424 83.72C485.724 84.56 484.869 85.215 483.859 85.685C482.859 86.155 481.729 86.39 480.469 86.39ZM490.87 86V65H497.995C499.115 65 500.125 65.275 501.025 65.825C501.925 66.365 502.64 67.1 503.17 68.03C503.7 68.95 503.965 69.985 503.965 71.135C503.965 72.165 503.755 73.1 503.335 73.94C502.915 74.78 502.34 75.475 501.61 76.025C500.89 76.575 500.075 76.94 499.165 77.12L504.295 86H501.865L496.81 77.285H492.97V86H490.87ZM492.97 75.185H497.815C498.555 75.185 499.23 75.005 499.84 74.645C500.46 74.275 500.95 73.78 501.31 73.16C501.68 72.53 501.865 71.82 501.865 71.03C501.865 70.24 501.68 69.535 501.31 68.915C500.95 68.285 500.46 67.79 499.84 67.43C499.23 67.06 498.555 66.875 497.815 66.875H492.97V75.185ZM506.809 86V65H519.589V67.1H508.909V73.7H517.744V75.8H508.909V83.9H519.589V86H506.809Z" fill="white"/>
<defs>
<filter id="filter0_di_0_1" x="0" y="0" width="313" height="122" filterUnits="userSpaceOnUse" color-interpolation-filters="sRGB">
<feFlood flood-opacity="0" result="BackgroundImageFix"/>
<feColorMatrix in="SourceAlpha" type="matrix" values="0 0 0 0 0 0 0 0 0 0 0 0 0 0 0 0 0 0 127 0" result="hardAlpha"/>
<feOffset dy="4"/>
<feGaussianBlur stdDeviation="2"/>
<feComposite in2="hardAlpha" operator="out"/>
<feColorMatrix type="matrix" values="0 0 0 0 0 0 0 0 0 0 0 0 0 0 0 0 0 0 0.25 0"/>
<feBlend mode="normal" in2="BackgroundImageFix" result="effect1_dropShadow_0_1"/>
<feBlend mode="normal" in="SourceGraphic" in2="effect1_dropShadow_0_1" result="shape"/>
<feColorMatrix in="SourceAlpha" type="matrix" values="0 0 0 0 0 0 0 0 0 0 0 0 0 0 0 0 0 0 127 0" result="hardAlpha"/>
<feOffset dy="4"/>
<feGaussianBlur stdDeviation="2"/>
<feComposite in2="hardAlpha" operator="arithmetic" k2="-1" k3="1"/>
<feColorMatrix type="matrix" values="0 0 0 0 0 0 0 0 0 0 0 0 0 0 0 0 0 0 0.25 0"/>
<feBlend mode="normal" in2="shape" result="effect2_innerShadow_0_1"/>
</filter>
<linearGradient id="paint0_linear_0_1" x1="4" y1="114" x2="309" y2="114" gradientUnits="userSpaceOnUse">
<stop stop-color="#001AFF" stop-opacity="0.3"/>
<stop offset="1" stop-color="#B20000"/>
</linearGradient>
<linearGradient id="paint1_linear_0_1" x1="4" y1="57" x2="309" y2="57" gradientUnits="userSpaceOnUse">
<stop stop-color="#001AFF" stop-opacity="0.3"/>
<stop offset="0.496" stop-color="#AA00FF" stop-opacity="0.496"/>
<stop offset="1" stop-color="#EA0000"/>
</linearGradient>
</defs>
</svg>
